<?xml version="1.0" encoding="utf-8"?>
<!-- Generator: Adobe Illustrator 26.4.1, SVG Export Plug-In . SVG Version: 6.00 Build 0)  -->
<svg version="1.1" id="Layer_1" xmlns="http://www.w3.org/2000/svg" xmlns:xlink="http://www.w3.org/1999/xlink" x="0px" y="0px"
	 viewBox="0 0 2000 2000" style="enable-background:new 0 0 2000 2000;" xml:space="preserve">
<style type="text/css">
	.st0{fill:#00618A;}
	.st1{fill:#E48E00;}
	.st2{fill-rule:evenodd;clip-rule:evenodd;fill:#00618A;}
	.st3{fill-rule:evenodd;clip-rule:evenodd;fill:#E48E00;}
</style>
<path class="st0" d="M0.63,1378.01h65.89v-260.1l102,226.83c12.03,27.34,28.52,37.17,60.82,37.17s48.14-9.72,60.2-37.17
	l102.01-226.83v260.2h65.9v-259.77c0-25.34-10.16-37.6-31.05-43.93c-50.05-15.62-83.63-2.11-98.83,31.68l-100.1,223.86L130.52,1106
	c-14.57-33.79-48.78-47.3-98.83-31.68c-20.92,6.34-31.05,18.59-31.05,43.93V1378.01z M512.22,1166.24h65.87v143.36
	c-0.62,7.79,2.5,26.07,38.59,26.63c18.42,0.29,142.13,0,143.28,0v-170.7h66.02c0.29,0-0.07,232.76-0.06,233.75
	c0.36,57.4-71.23,69.87-104.22,70.84H513.65v-44.34l208.42-0.01c42.4-4.49,37.4-25.56,37.4-32.66v-17.29H619.44
	c-65.16-0.59-106.64-29.03-107.16-61.75c-0.05-2.93,1.41-146.44-0.04-147.85L512.22,1166.24z"/>
<path class="st1" d="M876.77,1378.01h189.43c22.17,0,43.72-4.64,60.84-12.68c28.52-13.09,42.45-30.83,42.45-54.06v-48.14
	c0-19.01-15.84-36.75-46.88-48.57c-16.47-6.35-36.75-9.72-56.39-9.72H986.4c-26.6,0-39.28-8.03-42.44-25.76
	c-0.63-2.11-0.63-3.91-0.63-5.92v-29.98c0-1.69,0-3.39,0.63-5.5c3.16-13.52,10.14-17.32,33.57-19.53c1.9,0,4.43-0.43,6.35-0.43
	h188.17v-43.92h-185c-26.61,0-40.55,1.69-53.22,5.49c-39.32,12.26-56.43,31.79-56.43,65.58v38.44c0,29.57,33.59,54.91,89.96,60.82
	c6.35,0.42,12.68,0.84,19,0.84h68.43c2.54,0,5.08,0,6.97,0.43c20.9,1.69,29.79,5.49,36.11,13.09c3.91,3.91,5.08,7.62,5.08,11.72
	v38.44c0,4.65-3.16,10.57-9.5,15.62c-5.7,5.08-15.21,8.45-27.88,9.3c-2.54,0-4.43,0.42-6.96,0.42H876.77v43.93L876.77,1378.01z
	 M1580.53,1301.57c0,45.2,33.57,70.54,101.37,75.61c6.32,0.49,12.66,0.77,19,0.84h171.7v-43.93h-172.97
	c-38.64,0-53.22-9.72-53.22-32.95v-227.25h-65.89v227.66L1580.53,1301.57z M1211.53,1303.85v-156.59
	c0-39.79,27.93-63.92,83.16-71.53c5.89-0.84,11.83-1.27,17.78-1.27h125.07c6.16,0,12.31,0.43,18.42,1.27
	c55.23,7.62,83.16,31.74,83.16,71.53v156.59c0,32.28-11.87,49.55-39.21,60.81l64.9,58.59h-76.5l-52.51-47.4l-52.86,3.35h-70.47
	c-12.06,0-24.76-1.7-38.73-5.51c-41.99-11.43-62.21-33.44-62.21-69.84L1211.53,1303.85z M1282.65,1299.95
	c0,2.12,0.63,4.23,1.27,6.78c3.91,18.2,20.95,28.36,46.88,28.36h59.86l-54.98-49.64h76.5l47.85,43.29
	c8.84-4.71,14.65-11.91,16.6-21.16c0.63-2.11,0.63-4.23,0.63-6.35v-150.15c0-1.69,0-3.91-0.63-5.93
	c-3.91-16.92-20.96-26.66-46.35-26.66h-99.38c-29.3,0-48.24,12.7-48.24,32.59v148.99L1282.65,1299.95z"/>
<g>
	<path class="st0" d="M1930.57,1001.02c-40.5-1.09-71.45,2.67-97.89,13.82c-7.52,3.17-19.5,3.25-20.73,12.68
		c4.13,4.33,4.79,10.79,8.06,16.11c6.32,10.22,16.99,23.93,26.49,31.09c10.39,7.84,21.09,16.24,32.26,23.05
		c19.82,12.09,41.95,18.99,61.04,31.09c11.25,7.13,22.42,16.11,33.4,24.18c5.42,3.98,9.08,10.18,16.11,12.67v-1.15
		c-3.71-4.72-4.66-11.2-8.06-16.11l-14.97-14.97c-14.65-19.53-33.22-36.49-52.98-50.68c-15.75-11.31-51.02-26.58-57.59-44.92
		l-1.15-1.15c11.17-1.27,24.25-5.3,34.57-8.06c17.31-4.64,32.79-3.45,50.68-8.06l24.19-6.91v-4.61
		c-9.04-9.28-15.49-21.55-25.34-29.94c-25.78-21.97-53.94-43.9-82.91-62.21c-16.07-10.16-35.94-16.74-52.98-25.34
		c-5.73-2.89-15.8-4.39-19.58-9.22c-8.95-11.41-13.82-25.88-20.72-39.06c-14.45-27.83-28.65-58.24-41.47-87.53
		c-8.74-19.97-14.45-39.67-25.33-57.59c-52.3-85.98-108.59-137.87-195.78-188.87c-18.55-10.84-40.89-15.14-64.5-20.73l-38.01-2.3
		c-7.73-3.22-15.78-12.7-23.05-17.29c-28.89-18.26-102.98-57.94-124.38-5.86c-13.51,32.94,20.19,65.08,32.25,81.78
		c8.46,11.72,19.3,24.83,25.33,38.01c3.97,8.65,4.67,17.33,8.07,26.49c8.37,22.46,15.65,47.1,26.48,67.95
		c5.47,10.55,11.5,21.66,18.43,31.09c4.25,5.79,11.52,8.34,12.67,17.29c-7.11,9.96-7.52,25.39-11.52,38.01
		c-18,56.76-11.21,127.3,14.97,169.31c8.04,12.89,26.95,40.55,52.98,29.94c22.75-9.28,17.58-37.99,24.19-63.34
		c1.46-5.76,0.57-9.96,3.46-13.82V887l20.73,41.46c15.33,24.71,42.58,50.54,65.64,67.97c11.96,9.03,21.48,24.66,36.86,29.94v-1.15
		h-1.15c-3-4.69-7.69-6.61-11.52-10.35c-9.01-8.84-19.04-19.82-26.49-29.94c-21-28.5-39.53-59.67-56.43-92.14
		c-8.07-15.5-15.09-32.6-21.88-48.37c-2.62-6.08-2.59-15.27-8.06-18.43c-7.45,11.56-18.43,20.9-24.19,34.55
		c-9.22,21.82-10.41,48.42-13.82,76.02c-2.02,0.72-1.12,0.22-2.3,1.15c-16.04-3.87-21.68-20.38-27.64-34.55
		c-15.08-35.84-17.87-93.52-4.61-134.75c3.42-10.66,18.95-44.28,12.67-54.13c-3-9.83-12.89-15.63-18.43-23.05
		c-6.84-9.28-13.69-21.52-18.43-32.25c-12.34-27.93-18.11-59.28-31.09-87.53c-6.21-13.5-16.7-27.15-25.33-39.06
		c-9.55-13.28-20.24-23.09-27.64-39.06c-2.64-5.71-6.21-14.84-2.3-20.73c0.76-3.45,3.46-6.15,6.91-6.91
		c6.68-5.15,25.29,1.71,32.25,4.61c18.46,7.68,33.89,14.98,49.53,25.34c7.52,4.88,15.11,14.61,24.18,17.29h10.35
		c16.21,3.73,34.38,1.17,49.51,5.76c26.78,8.13,50.76,20.8,72.56,34.55c66.39,41.91,120.65,101.58,157.78,172.85
		c5.98,11.46,8.55,22.4,13.82,34.55c10.62,24.41,23.98,49.74,34.55,73.7c10.55,23.93,20.8,48.05,35.7,67.95
		c7.83,10.45,38.09,16.07,51.83,21.88c9.64,4.07,25.42,8.32,34.55,13.82c17.43,10.52,34.33,23.05,50.68,34.57
		c8.17,5.76,33.3,18.39,34.55,28.79L1930.57,1001.02z"/>
	<path class="st2" d="M1415.78,562.23c-8.45-0.16-14.41,0.92-20.73,2.3v1.15h1.15c4.02,8.28,11.13,13.6,16.11,20.73l11.52,24.18
		l1.15-1.15c7.13-5.03,10.4-13.07,10.35-25.34c-2.86-3.01-3.28-6.78-5.76-10.37c-3.29-4.79-9.77-7.5-13.82-11.52L1415.78,562.23z"/>
</g>
<path class="st3" d="M1903.52,1332.84c0,29,22.92,48.55,48.55,48.55s48.55-19.55,48.55-48.55s-22.92-48.55-48.55-48.55
	S1903.52,1303.83,1903.52,1332.84z M1989.76,1332.84c0,22.01-16.83,38.46-37.7,38.46c-21.09,0-37.7-16.45-37.7-38.46
	s16.58-38.46,37.7-38.46C1972.91,1294.38,1989.76,1310.83,1989.76,1332.84z M1965.15,1360.55h10.87l-15.92-24.34
	c8.54-0.91,15.01-5.06,15.01-15.16c0-11.27-7.13-15.92-20.84-15.92h-21.63v55.42h9.33v-23.96h8.67L1965.15,1360.55L1965.15,1360.55z
	 M1941.96,1328.81v-15.92h10.74c5.57,0,12.3,1.04,12.3,7.52c0,7.76-6.08,8.42-13.09,8.42h-9.96V1328.81z"/>
</svg>
