<?xml version="1.0" encoding="utf-8"?>
<!-- Generator: Adobe Illustrator 26.4.1, SVG Export Plug-In . SVG Version: 6.00 Build 0)  -->
<svg version="1.1" id="Layer_1" xmlns="http://www.w3.org/2000/svg" xmlns:xlink="http://www.w3.org/1999/xlink" x="0px" y="0px"
	 viewBox="0 0 2000 2000" style="enable-background:new 0 0 2000 2000;" xml:space="preserve">
<style type="text/css">
	.st0{fill:#539E43;}
	.st1{fill:#FFFFFF;}
	.st2{clip-path:url(#SVGID_00000133498381765756961160000008197881792295824552_);}
	.st3{fill:#41873F;}
	.st4{fill:#41883E;}
	.st5{fill:#418A3E;}
	.st6{fill:#418B3D;}
	.st7{fill:#418C3C;}
	.st8{fill:#418D3C;}
	.st9{fill:#418E3B;}
	.st10{fill:#418F3B;}
	.st11{fill:#41913A;}
	.st12{fill:#419239;}
	.st13{fill:#419339;}
	.st14{fill:#419438;}
	.st15{fill:#419538;}
	.st16{fill:#419637;}
	.st17{fill:#419736;}
	.st18{fill:#419836;}
	.st19{fill:#419935;}
	.st20{fill:#419A35;}
	.st21{fill:#409B34;}
	.st22{fill:#409C34;}
	.st23{fill:#409D33;}
	.st24{fill:#409E33;}
	.st25{fill:#40A032;}
	.st26{fill:#40A131;}
	.st27{fill:#40A231;}
	.st28{fill:#40A330;}
	.st29{fill:#40A430;}
	.st30{fill:#3FA52F;}
	.st31{fill:#3FA62F;}
	.st32{fill:#3FA72E;}
	.st33{fill:#3FA82E;}
	.st34{fill:#3FA92D;}
	.st35{fill:#3FAA2C;}
	.st36{fill:#3FAC2C;}
	.st37{fill:#3FAD2B;}
	.st38{fill:#3FAE2A;}
	.st39{fill:none;}
	.st40{clip-path:url(#SVGID_00000183936919720754356680000000321250380823712681_);}
	.st41{fill:#42883F;}
	.st42{fill:#43893F;}
	.st43{fill:#438A40;}
	.st44{fill:#448B40;}
	.st45{fill:#458C40;}
	.st46{fill:#468D40;}
	.st47{fill:#478E40;}
	.st48{fill:#478F41;}
	.st49{fill:#489041;}
	.st50{fill:#499141;}
	.st51{fill:#4A9241;}
	.st52{fill:#4B9442;}
	.st53{fill:#4B9542;}
	.st54{fill:#4C9642;}
	.st55{fill:#4D9742;}
	.st56{fill:#4E9842;}
	.st57{fill:#4E9943;}
	.st58{fill:#4F9A43;}
	.st59{fill:#509B43;}
	.st60{fill:#519C43;}
	.st61{fill:#529D43;}
	.st62{fill:#529E44;}
	.st63{fill:#539F44;}
	.st64{fill:#54A044;}
	.st65{fill:#55A144;}
	.st66{fill:#56A244;}
	.st67{fill:#56A345;}
	.st68{fill:#57A445;}
	.st69{fill:#58A545;}
	.st70{fill:#59A645;}
	.st71{fill:#59A745;}
	.st72{fill:#5AA845;}
	.st73{fill:#5BA946;}
	.st74{fill:#5CAA46;}
	.st75{fill:#5DAB46;}
	.st76{fill:#5DAD46;}
	.st77{clip-path:url(#SVGID_00000035510071069843489620000017074493289278998968_);}
	.st78{clip-path:url(#SVGID_00000081610933727251542100000004184827308097930923_);}
	.st79{fill:#6CC04A;}
	.st80{fill:#6BBF4A;}
	.st81{fill:#6ABE49;}
	.st82{fill:#69BD49;}
	.st83{fill:#69BB49;}
	.st84{fill:#68BA49;}
	.st85{fill:#67B948;}
	.st86{fill:#66B848;}
	.st87{fill:#65B748;}
	.st88{fill:#64B648;}
	.st89{fill:#64B547;}
	.st90{fill:#63B447;}
	.st91{fill:#62B347;}
	.st92{fill:#61B247;}
	.st93{fill:#61B147;}
	.st94{fill:#60B047;}
	.st95{fill:#5FAF46;}
	.st96{fill:#5EAE46;}
	.st97{clip-path:url(#SVGID_00000067236203953811013000000008817334689205660591_);}
	.st98{clip-path:url(#SVGID_00000179631180295911548390000015315499325583206279_);}
	.st99{clip-path:url(#SVGID_00000138564462015343668750000016857360645155589272_);}
</style>
<path class="st0" d="M995.15,1608.42c-6.47,0-12.55-1.56-18.25-4.6l-58.64-34.62c-8.74-4.92-4.6-6.47-1.88-7.64
	c9.36-2.58,18.33-6.39,26.67-11.39c1.17-1.17,3.04-0.78,4.21,0l44.92,26.67c1.88,1.17,3.82,1.17,5.31,0l175.55-101.3
	c1.88-1.17,2.65-2.65,2.65-4.92v-202.92c0-2.26-0.78-3.82-2.65-4.6l-175.55-101.3c-1.88-1.17-3.82-1.17-5.31,0l-175.55,101.3
	c-1.88,0.78-2.65,3.04-2.65,4.6v202.92c0,1.88,0.78,3.82,2.65,4.92l47.97,27.76c25.89,12.94,41.88-2.26,41.88-17.86v-200.27
	c0-2.26,2.65-4.92,5.69-4.92h22.46c2.65,0,4.92,1.88,4.92,4.92v200.27c0,35.01-19.03,55.21-51.78,55.21c-9.9,0-17.86,0-40.4-11.39
	l-46.48-25.89c-11.39-6.86-18.25-19.03-18.25-32.36v-202.92c0-12.94,6.86-25.5,18.25-31.97l175.93-101.69
	c10.68-6.08,25.89-6.08,36.97,0l175.16,101.69c11.39,6.47,19.03,19.03,19.03,31.97v203.31c0,13.33-7.64,25.5-19.03,32.36
	l-175.16,100.92C1008.11,1606.95,1001.32,1608.43,995.15,1608.42L995.15,1608.42L995.15,1608.42z M1049.28,1469.45
	c-76.89,0-92.88-35.4-92.88-65.12c0-2.65,2.26-5.31,5.31-5.31h22.85c2.65,0,4.92,1.56,4.92,4.21c3.82,23.24,13.72,35.01,60.12,35.01
	c37.28,0,53.34-8.35,53.34-28.15c0-11.39-4.6-19.8-62.46-25.5c-47.97-4.92-77.67-15.21-77.67-53.65c0-35.8,29.72-57.08,79.94-57.08
	c56.38,0,83.75,19.42,87.57,61.69c0,1.56-0.39,2.65-1.56,3.82c-0.78,1.17-1.88,1.88-3.43,1.88h-22.85c-2.26,0-4.21-1.56-4.92-3.82
	c-4.92-24.33-19.03-32.36-54.83-32.36c-40.4,0-45.7,14.12-45.7,24.72c0,12.94,6.08,16.76,60.91,24.02
	c53.65,6.86,79.16,17.16,79.16,54.83s-31.97,60.91-87.57,60.91l-0.23-0.08l0,0L1049.28,1469.45z"/>
<path class="st1" d="M450.35,815.39c0-7.64-4.21-15.21-11.39-19.03L252.34,688.2c-3.04-1.56-6.47-2.65-9.9-3.04h-1.88
	c-3.82,0-7.25,1.56-10.29,3.04L43.74,795.58c-6.86,3.82-11.47,11.39-11.47,19.42l0.39,288.62c0,3.82,2.26,8.04,5.69,9.9
	c3.82,2.26,8.04,2.26,11.39,0l110.43-63.56c7.64-3.82,11.39-11.39,11.39-19.03V895.7c0-8.04,4.6-15.21,11.39-19.42l47.18-27.45
	c3.82-2.26,7.64-3.04,11.39-3.04c3.75,0,8.04,0.78,11.39,3.04l46.87,27.45c7.25,3.82,11.39,11.39,11.39,19.03v135.15
	c0,8.04,4.6,15.21,11.39,19.42l110.82,63.56c3.82,2.26,8.04,2.26,11.39,0c3.82-1.88,5.69-5.69,5.69-9.9V815l-0.08,0.39l0,0H450.35z
	 M1347.33,417.9c-3.82-1.56-8.04-1.56-11.39,0c-3.35,2.11-5.38,5.93-5.31,9.9v285.97c0,2.65-1.56,5.31-3.82,7.25
	c-3.04,1.17-5.31,1.17-8.04,0l-46.87-26.67c-6.94-3.9-15.52-3.9-22.46,0l-186.15,107c-6.86,3.82-11.39,11.39-11.39,19.42v215.09
	c0,8.04,4.6,15.21,11.39,19.42l186.54,107.78c7.09,4.05,15.75,4.05,22.85,0l186.61-107.85c6.86-3.82,11.39-11.39,11.39-19.03V499.32
	c0-8.19-4.36-15.75-11.39-19.8l-112.29-61.62H1347.33L1347.33,417.9z M1329.86,965.35c0,2.26-1.17,3.82-2.65,4.92l-63.95,36.97
	c-1.8,0.86-3.9,0.86-5.69,0L1194,970.27c-1.88-0.78-2.65-3.04-2.65-4.92V891.5c0-2.26,0.78-3.82,2.65-4.92l63.56-36.97
	c1.8-0.86,3.9-0.86,5.69,0l63.95,36.97c1.56,1.17,2.65,3.04,2.65,4.92V965.35z M1967.54,889.62c7.25-3.82,11.39-11.39,11.39-19.03
	v-52.56c0-7.64-4.6-15.21-11.39-19.03l-184.59-108.16c-6.94-3.9-15.52-3.9-22.46,0l-186.54,107.78
	c-7.25,3.82-11.39,11.39-11.39,19.42v215.47c0,8.04,4.21,15.21,11.39,19.42l185.06,105.82c7.25,3.82,15.6,3.82,22.07,0l112.29-62.85
	c3.82-1.56,5.69-5.69,5.69-9.51s-2.26-7.64-5.69-9.51L1706.05,968.7c-3.43-1.95-5.62-5.54-5.69-9.51v-67.38
	c0-3.82,1.88-7.64,5.69-9.51l58.26-33.53c3.51-2.19,7.96-2.19,11.39,0l58.64,33.53c3.43,1.95,5.62,5.54,5.69,9.51v52.95
	c0,3.82,2.26,7.64,5.69,9.51c3.82,2.26,8.04,2.26,11.39,0l110.82-64.73L1967.54,889.62L1967.54,889.62L1967.54,889.62z"/>
<path class="st0" d="M1768.84,879.73c1.24-0.86,2.89-0.86,4.21,0l35.8,20.59c1.56,0.78,2.26,2.26,2.26,3.82v41.88
	c0,1.56-0.78,2.65-2.26,3.82l-35.8,20.59c-1.24,0.86-2.89,0.86-4.21,0l-35.8-20.59c-1.17-1.17-1.88-2.26-1.88-3.82v-41.88
	c0-1.56,0.78-3.04,1.88-3.82L1768.84,879.73z"/>
<g>
	<g id="a">
		<g>
			<defs>
				<path id="SVGID_1_" d="M762.21,692.4c-6.94-3.9-15.52-3.9-22.46,0L554.69,799.01c-7.25,3.82-11.39,11.39-11.39,19.42v214.38
					c0,7.64,4.6,15.21,11.39,19.03l184.98,107.7c6.94,3.9,15.52,3.9,22.46,0l185.45-107c6.86-3.82,11.08-11.39,11.08-19.42V818.43
					c0-7.64-4.6-15.21-11.39-19.03L762.52,692.02L762.21,692.4L762.21,692.4z"/>
			</defs>
			<clipPath id="SVGID_00000176754518267065581890000015078839734845973651_">
				<use xlink:href="#SVGID_1_"  style="overflow:visible;"/>
			</clipPath>
			<g style="clip-path:url(#SVGID_00000176754518267065581890000015078839734845973651_);">
				<g>
					<polygon class="st3" points="958.66,856.4 694.84,688.51 958.66,688.51 					"/>
					<polygon class="st3" points="958.66,893.3 636.82,688.51 694.84,688.51 958.66,856.4 					"/>
					<polygon class="st4" points="958.66,930.22 578.81,688.51 636.82,688.51 958.66,893.3 					"/>
					<polygon class="st5" points="958.66,967.14 543.3,702.82 543.3,688.51 578.81,688.51 958.66,930.22 					"/>
					<polygon class="st6" points="958.66,1004.05 543.3,739.75 543.3,702.82 958.66,967.14 					"/>
					<polygon class="st6" points="958.66,1016.54 543.3,752.23 543.3,739.75 958.66,1004.05 					"/>
					<polygon class="st7" points="958.66,1029.03 543.3,764.71 543.3,752.23 958.66,1016.54 					"/>
					<polygon class="st8" points="958.66,1041.51 543.3,777.2 543.3,764.71 958.66,1029.03 					"/>
					<polygon class="st9" points="958.66,1054 543.3,789.69 543.3,777.2 958.66,1041.51 					"/>
					<polygon class="st10" points="958.66,1066.49 543.3,802.17 543.3,789.69 958.66,1054 					"/>
					<polygon class="st11" points="958.66,1078.97 543.3,814.66 543.3,802.17 958.66,1066.49 					"/>
					<polygon class="st12" points="958.66,1091.45 543.3,827.14 543.3,814.66 958.66,1078.97 					"/>
					<polygon class="st13" points="958.66,1103.94 543.3,839.62 543.3,827.14 958.66,1091.45 					"/>
					<polygon class="st14" points="958.66,1116.43 543.3,852.11 543.3,839.62 958.66,1103.94 					"/>
					<polygon class="st15" points="958.66,1128.91 543.3,864.6 543.3,852.11 958.66,1116.43 					"/>
					<polygon class="st16" points="958.66,1141.4 543.3,877.08 543.3,864.6 958.66,1128.91 					"/>
					<polygon class="st16" points="958.66,1148.42 543.3,884.1 543.3,877.08 958.66,1141.4 					"/>
					<polygon class="st17" points="958.66,1155.42 543.3,891.12 543.3,884.1 958.66,1148.42 					"/>
					<polygon class="st18" points="958.66,1162.45 543.3,898.13 543.3,891.12 958.66,1155.42 					"/>
					<polygon class="st19" points="949.19,1163.44 543.3,905.15 543.3,898.13 958.66,1162.45 958.66,1163.44 					"/>
					<polygon class="st20" points="938.16,1163.44 543.3,912.16 543.3,905.15 949.19,1163.44 					"/>
					<polygon class="st21" points="927.14,1163.44 543.3,919.18 543.3,912.16 938.16,1163.44 					"/>
					<polygon class="st22" points="916.11,1163.44 543.3,926.2 543.3,919.18 927.14,1163.44 					"/>
					<polygon class="st23" points="905.08,1163.44 543.3,933.21 543.3,926.2 916.11,1163.44 					"/>
					<polygon class="st24" points="894.06,1163.44 543.3,940.23 543.3,933.21 905.08,1163.44 					"/>
					<polygon class="st25" points="883.04,1163.44 543.3,947.24 543.3,940.23 894.06,1163.44 					"/>
					<polygon class="st26" points="872.01,1163.44 543.3,954.26 543.3,947.24 883.04,1163.44 					"/>
					<polygon class="st27" points="860.99,1163.44 543.3,961.28 543.3,954.26 872.01,1163.44 					"/>
					<polygon class="st28" points="849.96,1163.44 543.3,968.29 543.3,961.28 860.99,1163.44 					"/>
					<polygon class="st29" points="838.94,1163.44 543.3,975.31 543.3,968.29 849.96,1163.44 					"/>
					<polygon class="st30" points="827.92,1163.44 543.3,982.32 543.3,975.31 838.94,1163.44 					"/>
					<polygon class="st31" points="816.89,1163.44 543.3,989.34 543.3,982.32 827.92,1163.44 					"/>
					<polygon class="st32" points="805.86,1163.44 543.3,996.36 543.3,989.34 816.89,1163.44 					"/>
					<polygon class="st33" points="794.84,1163.44 543.3,1003.37 543.3,996.36 805.86,1163.44 					"/>
					<polygon class="st34" points="783.81,1163.44 543.3,1010.39 543.3,1003.37 794.84,1163.44 					"/>
					<polygon class="st34" points="774.22,1163.44 543.3,1016.49 543.3,1010.39 783.81,1163.44 					"/>
					<polygon class="st35" points="764.63,1163.44 543.3,1022.59 543.3,1016.49 774.22,1163.44 					"/>
					<polygon class="st36" points="755.04,1163.44 543.3,1028.7 543.3,1022.59 764.63,1163.44 					"/>
					<polygon class="st37" points="745.44,1163.44 543.3,1034.81 543.3,1028.7 755.04,1163.44 					"/>
					<polygon class="st38" points="735.85,1163.44 543.3,1040.9 543.3,1034.81 745.44,1163.44 					"/>
					<polygon class="st38" points="543.3,1040.9 735.85,1163.44 543.3,1163.44 					"/>
				</g>
			</g>
		</g>
	</g>
	<g>
		<path class="st39" d="M739.36,692.4L553.14,799.01c-6.94,3.97-11.31,11.39-11.39,19.42v214.38c0,5.31,2.26,10.29,5.69,14.12
			l208.61-357.1c-5.31-1.17-11.39-0.78-16.76,2.26v0.31H739.36L739.36,692.4z M757.22,1161.1l5.31-2.26l185.76-107
			c6.86-3.82,11.39-11.39,11.39-19.42V818.43c0-5.69-2.65-11.39-6.47-15.21L757.22,1161.1L757.22,1161.1L757.22,1161.1z"/>
		<g>
			<defs>
				<path id="SVGID_00000165934567951342522560000005983426536676972709_" d="M947.97,799.4l-186.54-107
					c-1.72-0.93-3.51-1.72-5.31-2.26l-208.69,356.7c1.72,2.11,3.74,3.9,6.08,5.31l186.54,106.61c4.92,3.43,11.39,4.21,16.76,2.65
					l196.05-358.26c-1.32-1.72-2.81-3.27-4.6-4.6L947.97,799.4L947.97,799.4L947.97,799.4z"/>
			</defs>
			<clipPath id="SVGID_00000054258501679994725220000007543678971955344265_">
				<use xlink:href="#SVGID_00000165934567951342522560000005983426536676972709_"  style="overflow:visible;"/>
			</clipPath>
			<g style="clip-path:url(#SVGID_00000054258501679994725220000007543678971955344265_);">
				<g>
					<polygon class="st3" points="672.04,690.14 929.57,1162.97 547.44,1162.97 547.44,690.14 					"/>
					<polygon class="st3" points="679.03,690.14 936.56,1162.97 929.57,1162.97 672.04,690.14 					"/>
					<polygon class="st41" points="686.01,690.14 943.54,1162.97 936.56,1162.97 679.03,690.14 					"/>
					<polygon class="st42" points="693,690.14 950.53,1162.97 943.54,1162.97 686.01,690.14 					"/>
					<polygon class="st43" points="699.98,690.14 952.88,1154.47 952.88,1162.97 950.53,1162.97 693,690.14 					"/>
					<polygon class="st44" points="706.96,690.14 952.88,1141.64 952.88,1154.47 699.98,690.14 					"/>
					<polygon class="st45" points="713.95,690.14 952.88,1128.82 952.88,1141.64 706.96,690.14 					"/>
					<polygon class="st46" points="720.93,690.14 952.88,1115.99 952.88,1128.82 713.95,690.14 					"/>
					<polygon class="st47" points="727.92,690.14 952.88,1103.17 952.88,1115.99 720.93,690.14 					"/>
					<polygon class="st48" points="734.91,690.14 952.88,1090.34 952.88,1103.17 727.92,690.14 					"/>
					<polygon class="st49" points="741.89,690.14 952.88,1077.52 952.88,1090.34 734.91,690.14 					"/>
					<polygon class="st50" points="748.88,690.14 952.88,1064.7 952.88,1077.52 741.89,690.14 					"/>
					<polygon class="st51" points="755.86,690.14 952.88,1051.87 952.88,1064.7 748.88,690.14 					"/>
					<polygon class="st52" points="762.84,690.14 952.88,1039.05 952.88,1051.87 755.86,690.14 					"/>
					<polygon class="st53" points="769.83,690.14 952.88,1026.23 952.88,1039.05 762.84,690.14 					"/>
					<polygon class="st54" points="776.81,690.14 952.88,1013.4 952.88,1026.23 769.83,690.14 					"/>
					<polygon class="st55" points="783.8,690.14 952.88,1000.58 952.88,1013.4 776.81,690.14 					"/>
					<polygon class="st56" points="790.79,690.14 952.88,987.75 952.88,1000.58 783.8,690.14 					"/>
					<polygon class="st57" points="797.77,690.14 952.88,974.93 952.88,987.75 790.79,690.14 					"/>
					<polygon class="st58" points="804.75,690.14 952.88,962.11 952.88,974.93 797.77,690.14 					"/>
					<polygon class="st59" points="811.74,690.14 952.88,949.29 952.88,962.11 804.75,690.14 					"/>
					<polygon class="st60" points="818.72,690.14 952.88,936.46 952.88,949.29 811.74,690.14 					"/>
					<polygon class="st61" points="825.7,690.14 952.88,923.63 952.88,936.46 818.72,690.14 					"/>
					<polygon class="st62" points="832.69,690.14 952.88,910.81 952.88,923.63 825.7,690.14 					"/>
					<polygon class="st63" points="839.68,690.14 952.88,897.99 952.88,910.81 832.69,690.14 					"/>
					<polygon class="st64" points="846.66,690.14 952.88,885.16 952.88,897.99 839.68,690.14 					"/>
					<polygon class="st64" points="855.2,690.14 952.88,869.49 952.88,885.16 846.66,690.14 					"/>
					<polygon class="st65" points="863.74,690.14 952.88,853.81 952.88,869.49 855.2,690.14 					"/>
					<polygon class="st66" points="872.28,690.14 952.88,838.13 952.88,853.81 863.74,690.14 					"/>
					<polygon class="st67" points="880.82,690.14 952.88,822.45 952.88,838.13 872.28,690.14 					"/>
					<polygon class="st68" points="889.36,690.14 952.88,806.78 952.88,822.45 880.82,690.14 					"/>
					<polygon class="st69" points="897.89,690.14 952.88,791.1 952.88,806.78 889.36,690.14 					"/>
					<polygon class="st70" points="906.43,690.14 952.88,775.42 952.88,791.1 897.89,690.14 					"/>
					<polygon class="st71" points="914.98,690.14 952.88,759.75 952.88,775.42 906.43,690.14 					"/>
					<polygon class="st72" points="923.52,690.14 952.88,744.07 952.88,759.75 914.98,690.14 					"/>
					<polygon class="st73" points="932.05,690.14 952.88,728.39 952.88,744.07 923.52,690.14 					"/>
					<polygon class="st74" points="940.59,690.14 952.88,712.71 952.88,728.39 932.05,690.14 					"/>
					<polygon class="st75" points="949.13,690.14 952.88,697.04 952.88,712.71 940.59,690.14 					"/>
					<polygon class="st76" points="952.88,697.04 949.13,690.14 952.88,690.14 					"/>
				</g>
			</g>
		</g>
	</g>
	<g>
		<path class="st39" d="M959.74,1032.73v-214.3c0-7.64-4.92-15.21-11.78-19.03l-186.54-107c-2.11-1.32-4.44-2.19-6.86-2.65
			l203.7,347.97C959.36,1036.16,959.74,1034.68,959.74,1032.73L959.74,1032.73z M553.53,799.39c-7.02,3.82-11.47,11.08-11.78,19.03
			v214.38c0,7.64,5.31,15.21,11.78,19.03l186.54,107.39c3.82,2.65,8.74,3.43,14.12,2.65L555.09,798.61l-1.88,0.78L553.53,799.39
			L553.53,799.39z"/>
		<g>
			<defs>
				<path id="SVGID_00000001635867275489880920000009505443649883884716_" d="M733.59,653.18l-2.65,1.56h3.82
					C734.76,654.67,733.59,653.18,733.59,653.18z"/>
			</defs>
			<clipPath id="SVGID_00000088093695674948278820000008298824786624428211_">
				<use xlink:href="#SVGID_00000001635867275489880920000009505443649883884716_"  style="overflow:visible;"/>
			</clipPath>
			<g style="clip-path:url(#SVGID_00000088093695674948278820000008298824786624428211_);">
				<g>
					<rect x="730.94" y="653.18" class="st75" width="0.53" height="1.56"/>
					<rect x="731.47" y="653.18" class="st74" width="3.29" height="1.56"/>
				</g>
			</g>
		</g>
		<g>
			<defs>
				<path id="SVGID_00000121969774056920627720000004331828466327819671_" d="M948.36,1052.15c5.31-3.2,9.2-8.19,11.08-14.12
					L754.96,689.75c-5.46-1.17-11.16-0.16-15.99,2.65L554.69,798.62l199.09,363.26c2.89-0.47,5.69-1.4,8.35-2.65l186.15-107.39v0.31
					L948.36,1052.15L948.36,1052.15z"/>
			</defs>
			<clipPath id="SVGID_00000033350124163013677660000000091805871345838518_">
				<use xlink:href="#SVGID_00000121969774056920627720000004331828466327819671_"  style="overflow:visible;"/>
			</clipPath>
			<g style="clip-path:url(#SVGID_00000033350124163013677660000000091805871345838518_);">
				<g>
					<rect x="554.69" y="688.59" class="st79" width="21.61" height="473.29"/>
					<rect x="576.3" y="688.59" class="st79" width="10.4" height="473.29"/>
					<rect x="586.7" y="688.59" class="st80" width="10.4" height="473.29"/>
					<rect x="597.09" y="688.59" class="st81" width="10.4" height="473.29"/>
					<rect x="607.48" y="688.59" class="st82" width="10.4" height="473.29"/>
					<rect x="617.87" y="688.59" class="st83" width="10.4" height="473.29"/>
					<rect x="628.27" y="688.59" class="st84" width="10.4" height="473.29"/>
					<rect x="638.67" y="688.59" class="st85" width="10.4" height="473.29"/>
					<rect x="649.06" y="688.59" class="st86" width="10.4" height="473.29"/>
					<rect x="659.45" y="688.59" class="st86" width="5.55" height="473.29"/>
					<rect x="665" y="688.59" class="st87" width="5.55" height="473.29"/>
					<rect x="670.56" y="688.59" class="st88" width="5.55" height="473.29"/>
					<rect x="676.11" y="688.59" class="st89" width="5.55" height="473.29"/>
					<rect x="681.67" y="688.59" class="st90" width="5.55" height="473.29"/>
					<rect x="687.22" y="688.59" class="st91" width="5.55" height="473.29"/>
					<rect x="692.78" y="688.59" class="st92" width="5.55" height="473.29"/>
					<rect x="698.33" y="688.59" class="st93" width="5.55" height="473.29"/>
					<rect x="703.88" y="688.59" class="st94" width="5.55" height="473.29"/>
					<rect x="709.44" y="688.59" class="st95" width="5.55" height="473.29"/>
					<rect x="714.99" y="688.59" class="st96" width="5.55" height="473.29"/>
					<rect x="720.54" y="688.59" class="st76" width="5.55" height="473.29"/>
					<rect x="726.1" y="688.59" class="st75" width="5.55" height="473.29"/>
					<rect x="731.66" y="688.59" class="st74" width="5.55" height="473.29"/>
					<rect x="737.2" y="688.59" class="st73" width="5.55" height="473.29"/>
					<rect x="742.76" y="688.59" class="st72" width="5.55" height="473.29"/>
					<rect x="748.31" y="688.59" class="st71" width="5.55" height="473.29"/>
					<rect x="753.87" y="688.59" class="st70" width="5.55" height="473.29"/>
					<rect x="759.43" y="688.59" class="st69" width="5.55" height="473.29"/>
					<rect x="764.98" y="688.59" class="st68" width="5.55" height="473.29"/>
					<rect x="770.54" y="688.59" class="st67" width="5.55" height="473.29"/>
					<rect x="776.08" y="688.59" class="st66" width="5.55" height="473.29"/>
					<rect x="781.63" y="688.59" class="st65" width="5.55" height="473.29"/>
					<rect x="787.19" y="688.59" class="st64" width="5.55" height="473.29"/>
					<rect x="792.75" y="688.59" class="st64" width="4.55" height="473.29"/>
					<rect x="797.29" y="688.59" class="st63" width="4.55" height="473.29"/>
					<rect x="801.84" y="688.59" class="st62" width="4.55" height="473.29"/>
					<rect x="806.37" y="688.59" class="st61" width="4.55" height="473.29"/>
					<rect x="810.92" y="688.59" class="st60" width="4.55" height="473.29"/>
					<rect x="815.47" y="688.59" class="st59" width="4.55" height="473.29"/>
					<rect x="820.01" y="688.59" class="st58" width="4.55" height="473.29"/>
					<rect x="824.55" y="688.59" class="st57" width="4.55" height="473.29"/>
					<rect x="829.09" y="688.59" class="st56" width="4.55" height="473.29"/>
					<rect x="833.64" y="688.59" class="st55" width="4.55" height="473.29"/>
					<rect x="838.18" y="688.59" class="st54" width="4.55" height="473.29"/>
					<rect x="842.73" y="688.59" class="st53" width="4.55" height="473.29"/>
					<rect x="847.26" y="688.59" class="st52" width="4.55" height="473.29"/>
					<rect x="851.8" y="688.59" class="st51" width="4.55" height="473.29"/>
					<rect x="856.35" y="688.59" class="st50" width="4.55" height="473.29"/>
					<rect x="860.89" y="688.59" class="st49" width="4.55" height="473.29"/>
					<rect x="865.44" y="688.59" class="st48" width="4.55" height="473.29"/>
					<rect x="869.97" y="688.59" class="st47" width="4.55" height="473.29"/>
					<rect x="874.52" y="688.59" class="st46" width="4.55" height="473.29"/>
					<rect x="879.07" y="688.59" class="st45" width="4.55" height="473.29"/>
					<rect x="883.61" y="688.59" class="st44" width="4.55" height="473.29"/>
					<rect x="888.16" y="688.59" class="st43" width="4.55" height="473.29"/>
					<rect x="892.69" y="688.59" class="st42" width="4.55" height="473.29"/>
					<rect x="897.24" y="688.59" class="st41" width="4.55" height="473.29"/>
					<rect x="901.78" y="688.59" class="st3" width="4.55" height="473.29"/>
					<rect x="906.33" y="688.59" class="st3" width="53.11" height="473.29"/>
				</g>
			</g>
		</g>
		<g>
			<defs>
				<polygon id="SVGID_00000144335862015309594150000002137236322569027730_" points="965.52,1048.72 964.35,1046.46 964.35,1049.5 
					965.52,1048.72 				"/>
			</defs>
			<clipPath id="SVGID_00000082368632589537266100000005514495428373288332_">
				<use xlink:href="#SVGID_00000144335862015309594150000002137236322569027730_"  style="overflow:visible;"/>
			</clipPath>
			<g style="clip-path:url(#SVGID_00000082368632589537266100000005514495428373288332_);">
				<rect x="964.35" y="1046.46" class="st3" width="1.17" height="3.04"/>
			</g>
		</g>
		<g>
			<defs>
				<path id="SVGID_00000111887950133485121200000012297876779453463956_" d="M948.36,1052.15l-185.84,107
					c-2.65,1.32-5.46,2.26-8.35,2.65l3.82,6.47l205.57-119.17v-2.65l-5.31-8.74C957.48,1043.81,953.66,1049.11,948.36,1052.15
					L948.36,1052.15L948.36,1052.15z"/>
			</defs>
			<clipPath id="SVGID_00000159442916781891347250000007882855926491987644_">
				<use xlink:href="#SVGID_00000111887950133485121200000012297876779453463956_"  style="overflow:visible;"/>
			</clipPath>
			<g style="clip-path:url(#SVGID_00000159442916781891347250000007882855926491987644_);">
				<g>
					<rect x="754.18" y="1037.72" class="st70" width="5.01" height="130.54"/>
					<rect x="759.2" y="1037.72" class="st69" width="5.55" height="130.54"/>
					<rect x="764.74" y="1037.72" class="st68" width="5.55" height="130.54"/>
					<rect x="770.29" y="1037.72" class="st67" width="5.55" height="130.54"/>
					<rect x="775.86" y="1037.72" class="st66" width="5.55" height="130.54"/>
					<rect x="781.41" y="1037.72" class="st65" width="5.55" height="130.54"/>
					<rect x="786.96" y="1037.72" class="st64" width="5.55" height="130.54"/>
					<rect x="792.52" y="1037.72" class="st64" width="4.55" height="130.54"/>
					<rect x="797.06" y="1037.72" class="st63" width="4.55" height="130.54"/>
					<rect x="801.61" y="1037.72" class="st62" width="4.55" height="130.54"/>
					<rect x="806.15" y="1037.72" class="st61" width="4.55" height="130.54"/>
					<rect x="810.7" y="1037.72" class="st60" width="4.55" height="130.54"/>
					<rect x="815.24" y="1037.72" class="st59" width="4.55" height="130.54"/>
					<rect x="819.77" y="1037.72" class="st58" width="4.55" height="130.54"/>
					<rect x="824.32" y="1037.72" class="st57" width="4.55" height="130.54"/>
					<rect x="828.87" y="1037.72" class="st56" width="4.55" height="130.54"/>
					<rect x="833.41" y="1037.72" class="st55" width="4.55" height="130.54"/>
					<rect x="837.96" y="1037.72" class="st54" width="4.55" height="130.54"/>
					<rect x="842.49" y="1037.72" class="st53" width="4.55" height="130.54"/>
					<rect x="847.04" y="1037.72" class="st52" width="4.55" height="130.54"/>
					<rect x="851.59" y="1037.72" class="st51" width="4.55" height="130.54"/>
					<rect x="856.13" y="1037.72" class="st50" width="4.55" height="130.54"/>
					<rect x="860.67" y="1037.72" class="st49" width="4.55" height="130.54"/>
					<rect x="865.22" y="1037.72" class="st48" width="4.55" height="130.54"/>
					<rect x="869.76" y="1037.72" class="st47" width="4.55" height="130.54"/>
					<rect x="874.31" y="1037.72" class="st46" width="4.55" height="130.54"/>
					<rect x="878.86" y="1037.72" class="st45" width="4.55" height="130.54"/>
					<rect x="883.39" y="1037.72" class="st44" width="4.55" height="130.54"/>
					<rect x="887.94" y="1037.72" class="st43" width="4.55" height="130.54"/>
					<rect x="892.48" y="1037.72" class="st42" width="4.55" height="130.54"/>
					<rect x="897.02" y="1037.72" class="st41" width="4.55" height="130.54"/>
					<rect x="901.57" y="1037.72" class="st3" width="4.55" height="130.54"/>
					<rect x="906.1" y="1037.72" class="st3" width="57.46" height="130.54"/>
				</g>
			</g>
		</g>
		<g>
			<defs>
				<path id="SVGID_00000078023217106187947900000015600269933149869706_" d="M948.36,1052.15l-185.84,107
					c-2.65,1.32-5.46,2.26-8.35,2.65l3.82,6.47l205.57-119.17v-2.65l-5.31-8.74C957.48,1043.81,953.66,1049.11,948.36,1052.15
					L948.36,1052.15L948.36,1052.15z"/>
			</defs>
			<clipPath id="SVGID_00000049938015430200719420000015178744225926615191_">
				<use xlink:href="#SVGID_00000078023217106187947900000015600269933149869706_"  style="overflow:visible;"/>
			</clipPath>
			<g style="clip-path:url(#SVGID_00000049938015430200719420000015178744225926615191_);">
				<g>
					<polygon class="st11" points="963.56,1042.07 940.78,1037.72 963.56,1037.72 					"/>
					<polygon class="st12" points="963.56,1058.47 854.81,1037.72 940.78,1037.72 963.56,1042.07 					"/>
					<polygon class="st13" points="963.56,1074.86 768.83,1037.72 854.81,1037.72 963.56,1058.47 					"/>
					<polygon class="st14" points="963.56,1091.26 754.18,1051.33 754.18,1037.72 768.83,1037.72 963.56,1074.86 					"/>
					<polygon class="st15" points="963.56,1107.64 754.18,1067.71 754.18,1051.33 963.56,1091.26 					"/>
					<polygon class="st16" points="963.56,1124.04 754.18,1084.11 754.18,1067.71 963.56,1107.64 					"/>
					<polygon class="st16" points="963.56,1133.26 754.18,1093.32 754.18,1084.11 963.56,1124.04 					"/>
					<polygon class="st17" points="963.56,1142.47 754.18,1102.54 754.18,1093.32 963.56,1133.26 					"/>
					<polygon class="st18" points="963.56,1151.68 754.18,1111.75 754.18,1102.54 963.56,1142.47 					"/>
					<polygon class="st19" points="963.56,1160.89 754.18,1120.95 754.18,1111.75 963.56,1151.68 					"/>
					<polygon class="st20" points="953.95,1168.27 754.18,1130.18 754.18,1120.95 963.56,1160.89 963.56,1168.27 					"/>
					<polygon class="st21" points="905.65,1168.27 754.18,1139.39 754.18,1130.18 953.95,1168.27 					"/>
					<polygon class="st22" points="857.33,1168.27 754.18,1148.59 754.18,1139.39 905.65,1168.27 					"/>
					<polygon class="st23" points="809.04,1168.27 754.18,1157.81 754.18,1148.59 857.33,1168.27 					"/>
					<polygon class="st24" points="760.72,1168.27 754.18,1167.02 754.18,1157.81 809.04,1168.27 					"/>
					<polygon class="st25" points="754.18,1167.02 760.72,1168.27 754.18,1168.27 					"/>
				</g>
			</g>
		</g>
	</g>
</g>
</svg>
