<?xml version="1.0" encoding="utf-8"?>
<!-- Generator: Adobe Illustrator 26.4.1, SVG Export Plug-In . SVG Version: 6.00 Build 0)  -->
<svg version="1.1" id="Layer_1" xmlns="http://www.w3.org/2000/svg" xmlns:xlink="http://www.w3.org/1999/xlink" x="0px" y="0px"
	 viewBox="0 0 2000 2000" style="enable-background:new 0 0 2000 2000;" xml:space="preserve">
<style type="text/css">
	.st0{clip-path:url(#SVGID_00000105427979081095446430000014617696372645564060_);}
	.st1{fill-rule:evenodd;clip-rule:evenodd;fill:#38BDF8;}
</style>
<g>
	<defs>
		<rect id="SVGID_1_" x="35.94" y="398.55" width="1928.12" height="1156.88"/>
	</defs>
	<clipPath id="SVGID_00000052795377302995155720000007902252302648257975_">
		<use xlink:href="#SVGID_1_"  style="overflow:visible;"/>
	</clipPath>
	<g style="clip-path:url(#SVGID_00000052795377302995155720000007902252302648257975_);">
		<path class="st1" d="M1000,398.55c-257.08,0-417.76,128.54-482.03,385.62c96.41-128.54,207.09-178.53,335.64-142.82
			c74.98,17.85,128.54,71.41,185.67,128.54c92.84,96.41,203.52,207.09,442.75,207.09c257.08,0,417.76-128.54,482.03-385.63
			c-96.41,128.54-207.09,178.53-335.64,142.82c-74.98-17.85-128.54-71.41-185.67-128.54C1349.92,509.24,1239.23,398.55,1000,398.55z
			 M517.97,976.99c-257.08,0-417.76,128.54-482.03,385.62c96.41-128.54,207.09-178.53,335.64-142.82
			c74.98,17.85,128.54,71.41,185.67,128.54c92.84,96.41,203.52,207.09,442.75,207.09c257.08,0,417.76-128.54,482.03-385.62
			c-96.41,128.54-207.09,178.53-335.64,142.82c-74.98-17.85-128.54-71.41-185.67-128.54C867.89,1087.68,757.2,976.99,517.97,976.99z
			"/>
	</g>
</g>
</svg>
